<svg version="1.2" xmlns="http://www.w3.org/2000/svg" viewBox="0 0 963 900" width="511" height="478">
	<title>971-ai</title>
	<defs>
		<radialGradient id="g1" cx="-71.6" cy="-204.3" r="1592.9" gradientUnits="userSpaceOnUse">
			<stop offset=".004" stop-color="#4c02f1"/>
			<stop offset="1" stop-color="#06044a"/>
		</radialGradient>
		<linearGradient id="g2" x1="758.1" y1="594.7" x2="823.3" y2="594.7" gradientUnits="userSpaceOnUse">
			<stop offset="0" stop-color="#e39a65"/>
			<stop offset="1" stop-color="#e95f8d"/>
		</linearGradient>
		<linearGradient id="g3" x1="806.2" y1="574.8" x2="953" y2="574.8" gradientUnits="userSpaceOnUse">
			<stop offset="0" stop-color="#e39a65"/>
			<stop offset="1" stop-color="#e95f8d"/>
		</linearGradient>
		<linearGradient id="g4" x1="-162" y1="624" x2="-15.2" y2="624" gradientUnits="userSpaceOnUse">
			<stop offset="0" stop-color="#e39a65"/>
			<stop offset="1" stop-color="#e95f8d"/>
		</linearGradient>
		<linearGradient id="g5" x1="8.9" y1="428.4" x2="792.5" y2="428.4" gradientUnits="userSpaceOnUse">
			<stop offset="0" stop-color="#e39a65"/>
			<stop offset="1" stop-color="#e95f8d"/>
		</linearGradient>
		<radialGradient id="g6" cx="441.8" cy="76.8" r="598.5" gradientUnits="userSpaceOnUse">
			<stop offset="0" stop-color="#e39a65"/>
			<stop offset=".474" stop-color="#a92ffb"/>
			<stop offset=".742" stop-color="#6507fa"/>
			<stop offset=".802" stop-color="#0d0c6f"/>
		</radialGradient>
		<radialGradient id="g7" cx="75.7" cy="557.4" r="654.5" gradientUnits="userSpaceOnUse">
			<stop offset="0" stop-color="#e39a65"/>
			<stop offset=".474" stop-color="#a92ffb"/>
			<stop offset=".683" stop-color="#6507fa"/>
			<stop offset=".738" stop-color="#0d0c6f"/>
		</radialGradient>
		<radialGradient id="g8" cx="135.9" cy="426.1" r="586.9" gradientUnits="userSpaceOnUse">
			<stop offset="0" stop-color="#e39a65"/>
			<stop offset=".474" stop-color="#a92ffb"/>
			<stop offset=".726" stop-color="#6507fa"/>
			<stop offset="1" stop-color="#3919bb"/>
		</radialGradient>
		<radialGradient id="g9" cx="282.1" cy="201.6" r="598.6" gradientUnits="userSpaceOnUse">
			<stop offset="0" stop-color="#e39a65"/>
			<stop offset=".474" stop-color="#a92ffb"/>
			<stop offset=".726" stop-color="#6507fa"/>
			<stop offset="1" stop-color="#3919bb"/>
		</radialGradient>
		<linearGradient id="g10" x1="347.9" y1="101.8" x2="827.6" y2="101.8" gradientUnits="userSpaceOnUse">
			<stop offset="0" stop-color="#3919bb"/>
			<stop offset="1" stop-color="#6507fa"/>
		</linearGradient>
		<radialGradient id="g11" cx="63.6" cy="73.8" r="932.3" gradientUnits="userSpaceOnUse">
			<stop offset="0" stop-color="#e39a65"/>
			<stop offset=".474" stop-color="#a92ffb"/>
			<stop offset=".726" stop-color="#6507fa"/>
			<stop offset="1" stop-color="#3919bb"/>
		</radialGradient>
		<linearGradient id="g12" x1="20.9" y1="365.4" x2="226.6" y2="365.4" gradientUnits="userSpaceOnUse">
			<stop offset="0" stop-color="#e39a65"/>
			<stop offset="1" stop-color="#e95f8d"/>
		</linearGradient>
		<radialGradient id="g13" cx="39.1" cy="256.5" r="443.2" gradientUnits="userSpaceOnUse">
			<stop offset="0" stop-color="#e39a65"/>
			<stop offset=".153" stop-color="#a92ffb"/>
			<stop offset=".409" stop-color="#3919bb"/>
			<stop offset=".931" stop-color="#3919bb"/>
		</radialGradient>
		<linearGradient id="g14" x1="46.9" y1="148.6" x2="205.9" y2="148.6" gradientUnits="userSpaceOnUse">
			<stop offset="0" stop-color="#e39a65"/>
			<stop offset=".252" stop-color="#a92ffb"/>
			<stop offset=".556" stop-color="#3919bb"/>
		</linearGradient>
		<linearGradient id="g15" x1="61.9" y1="156.3" x2="191" y2="156.3" gradientUnits="userSpaceOnUse">
			<stop offset="0" stop-color="#4f1fec"/>
			<stop offset="1" stop-color="#a92ffb"/>
		</linearGradient>
		<linearGradient id="g16" x1="58.8" y1="156.3" x2="187.9" y2="156.3" gradientUnits="userSpaceOnUse">
			<stop offset="0" stop-color="#4f1fec"/>
			<stop offset="1" stop-color="#a92ffb"/>
		</linearGradient>
		<linearGradient id="g17" x1="61.9" y1="156.3" x2="224.7" y2="156.3" gradientUnits="userSpaceOnUse">
			<stop offset="0" stop-color="#131060"/>
			<stop offset=".607" stop-color="#740df8"/>
			<stop offset="1" stop-color="#e8975b"/>
		</linearGradient>
		<radialGradient id="g18" cx="27.1" cy="156.7" r="289.9" gradientUnits="userSpaceOnUse">
			<stop offset="0" stop-color="#e39a65"/>
			<stop offset=".252" stop-color="#a92ffb"/>
			<stop offset=".736" stop-color="#3919bb"/>
		</radialGradient>
		<linearGradient id="g19" x1="116.2" y1="227.9" x2="138.7" y2="227.9" gradientUnits="userSpaceOnUse">
			<stop offset="0" stop-color="#131060"/>
			<stop offset=".607" stop-color="#740df8"/>
			<stop offset="1" stop-color="#e8975b"/>
		</linearGradient>
	</defs>
	<style>
		.s0 { display: none;fill: url(#g1) } 
		.s1 { fill: #ffffff } 
		.s2 { display: none;fill: url(#g2) } 
		.s3 { fill: url(#g3) } 
		.s4 { display: none;fill: url(#g4) } 
		.s5 { opacity: .6;fill: #020230 } 
		.s6 { fill: url(#g5) } 
		.s7 { fill: url(#g6) } 
		.s8 { fill: url(#g7) } 
		.s9 { fill: url(#g8) } 
		.s10 { fill: #06033e } 
		.s11 { fill: url(#g9) } 
		.s12 { fill: url(#g10) } 
		.s13 { opacity: .4;fill: #06033e } 
		.s14 { opacity: .5;fill: #06033e } 
		.s15 { fill: url(#g11) } 
		.s16 { fill: #e8975b } 
		.s17 { fill: #f8359e } 
		.s18 { fill: url(#g12) } 
		.s19 { fill: url(#g13) } 
		.s20 { fill: url(#g14) } 
		.s21 { fill: url(#g15) } 
		.s22 { fill: url(#g16) } 
		.s23 { fill: url(#g17) } 
		.s24 { fill: url(#g18) } 
		.s25 { fill: #0c0a78 } 
		.s26 { fill: url(#g19) } 
		.s27 { opacity: .5;fill: #ffffff } 
	</style>
	<g id="_Artboards_" style="display: none">
	</g>
	<g id="321353356351 1">
		<path id="&lt;Path&gt;" class="s0" d="m996 900h-1200v-900h1200z"/>
		<g id="&lt;Group&gt;" style="display: none">
			<path id="&lt;Compound Path&gt;" fill-rule="evenodd" class="s1" d="m323.2 819.5v-19.4h6.1q5.1 0 5.1 5.5 0 1.6-0.4 2.6-0.4 1.1-1.2 1.7-0.7 0.6-1.7 0.9-0.9 0.2-2.2 0.2h-1.7v8.5zm3.9-11.2h1.3q1.3 0 1.8-0.6 0.4-0.6 0.4-2.1 0-0.8-0.1-1.2 0-0.4-0.2-0.8-0.3-0.4-0.7-0.6-0.5-0.2-1.2-0.2h-1.3z"/>
			<path id="&lt;Compound Path&gt;" fill-rule="evenodd" class="s1" d="m336.3 819.5v-19.4h4.9q1.6 0 2.7 0.2 1.1 0.2 2 0.8 0.8 0.6 1.3 1.6 0.4 1 0.4 2.5 0 1.9-0.6 3.1-0.5 1.1-1.8 1.7l2.7 9.5h-4l-2.3-8.8h-1.3v8.8zm3.9-11.2h1q1.4 0 2-0.6 0.6-0.7 0.6-2.2 0-1.4-0.5-2.1-0.5-0.7-1.9-0.7h-1.2z"/>
			<path id="&lt;Compound Path&gt;" fill-rule="evenodd" class="s1" d="m355.6 819.8q-1.5 0-2.6-0.5-1.2-0.4-1.8-1.3-0.7-0.8-1-2-0.3-1.1-0.3-2.7v-7.1q0-1.6 0.3-2.7 0.3-1.2 1-2 0.6-0.8 1.8-1.3 1.1-0.4 2.6-0.4 3.1 0 4.5 1.6 1.3 1.6 1.3 4.8v7.1q0 3.2-1.3 4.8-1.4 1.7-4.5 1.7zm-0.7-3q0.3 0.1 0.7 0.1 0.5 0 0.8-0.1 0.3-0.2 0.5-0.4 0.2-0.2 0.3-0.6 0.1-0.4 0.1-0.7 0.1-0.3 0.1-0.8v-9.1q0-0.5-0.1-0.8 0-0.3-0.1-0.7-0.1-0.3-0.3-0.5-0.2-0.3-0.5-0.4-0.3-0.1-0.8-0.1-0.4 0-0.7 0.1-0.3 0.1-0.5 0.4-0.2 0.2-0.3 0.5-0.1 0.4-0.1 0.7 0 0.3 0 0.8v9.1q0 0.5 0 0.8 0 0.3 0.1 0.7 0.1 0.4 0.3 0.6 0.2 0.2 0.5 0.4z"/>
			<path id="&lt;Compound Path&gt;" class="s1" d="m369 819.8q-1.5 0-2.5-0.5-1-0.5-1.6-1.4-0.6-0.9-0.9-2.1-0.3-1.2-0.3-2.8v-6.4q0-1.3 0.2-2.3 0.1-1 0.6-1.9 0.4-0.8 1-1.4 0.7-0.6 1.6-0.9 1-0.3 2.3-0.3 1.5 0 2.6 0.4 1.1 0.4 1.7 1.1 0.7 0.8 1 1.8 0.3 1 0.3 2.4v1.1h-3.9v-1.3q0-0.5 0-0.9 0-0.3-0.1-0.7-0.1-0.4-0.3-0.6-0.2-0.2-0.5-0.3-0.3-0.1-0.7-0.1-0.5 0-0.8 0.1-0.4 0.2-0.5 0.4-0.2 0.3-0.3 0.7-0.1 0.4-0.1 0.8-0.1 0.3-0.1 0.9v8.4q0 1.4 0.4 2.2 0.4 0.7 1.5 0.7 1 0 1.4-0.8 0.5-0.8 0.5-2.3v-1.9h-1.9v-2.4h5.4v10h-2.6l-0.2-1.8q-0.9 2.1-3.2 2.1z"/>
			<path id="&lt;Compound Path&gt;" fill-rule="evenodd" class="s1" d="m377.7 819.5v-19.4h4.9q1.6 0 2.7 0.2 1.1 0.2 1.9 0.8 0.9 0.6 1.3 1.6 0.5 1 0.5 2.5 0 1.9-0.6 3.1-0.5 1.1-1.8 1.7l2.7 9.5h-4.1l-2.2-8.8h-1.3v8.8zm3.9-11.2h1q1.4 0 2-0.6 0.6-0.7 0.6-2.2 0-1.4-0.5-2.1-0.5-0.7-1.9-0.7h-1.2z"/>
			<path id="&lt;Compound Path&gt;" fill-rule="evenodd" class="s1" d="m390.6 819.5l3.8-19.4h4.4l3.7 19.4h-3.6l-0.7-4.3h-3.1l-0.7 4.3zm4.8-6.8h2.3l-1.2-7.7z"/>
			<path id="&lt;Compound Path&gt;" class="s1" d="m404.4 819.5l0.3-19.4h4.2l2.4 12.4 2.6-12.4h4.1l0.3 19.4h-2.9l-0.3-13.1-2.5 13.1h-2.4l-2.6-13.2-0.2 13.2z"/>
			<path id="&lt;Compound Path&gt;" class="s1" d="m421.1 819.5l0.3-19.4h4.1l2.5 12.4 2.6-12.4h4l0.3 19.4h-2.9l-0.2-13.1-2.5 13.1h-2.5l-2.6-13.2-0.2 13.2z"/>
			<path id="&lt;Compound Path&gt;" class="s1" d="m437.8 819.5v-19.4h4v19.4z"/>
			<path id="&lt;Compound Path&gt;" class="s1" d="m444.7 819.5v-19.4h2.8l4.3 10.1v-10.1h3.3v19.4h-2.7l-4.3-10.7v10.7z"/>
			<path id="&lt;Compound Path&gt;" class="s1" d="m462.9 819.8q-1.4 0-2.4-0.5-1.1-0.5-1.7-1.4-0.6-0.9-0.9-2.1-0.2-1.2-0.2-2.8v-6.4q0-1.3 0.1-2.3 0.2-1 0.6-1.9 0.4-0.8 1.1-1.4 0.6-0.6 1.6-0.9 1-0.3 2.3-0.3 1.5 0 2.6 0.4 1.1 0.4 1.7 1.1 0.6 0.8 0.9 1.8 0.3 1 0.3 2.4v1.1h-3.8v-1.3q0-0.5 0-0.9-0.1-0.3-0.2-0.7-0.1-0.4-0.2-0.6-0.2-0.2-0.5-0.3-0.3-0.1-0.8-0.1-0.5 0-0.8 0.1-0.3 0.2-0.5 0.4-0.2 0.3-0.3 0.7-0.1 0.4-0.1 0.8 0 0.3 0 0.9v8.4q0 1.4 0.4 2.2 0.4 0.7 1.4 0.7 1.1 0 1.5-0.8 0.4-0.8 0.4-2.3v-1.9h-1.9v-2.4h5.5v10h-2.6l-0.3-1.8q-0.8 2.1-3.2 2.1z"/>
		</g>
		<path id="&lt;Compound Path&gt;" fill-rule="evenodd" class="s2" d="m790.7 633c-2.4 0-4.8-0.6-6.9-1.9l-23.5-13.5c-1.4-0.8-2.2-2.2-2.2-3.8 0-1.5 0.8-2.9 2.2-3.7l23.5-13.6c4.3-2.5 9.6-2.5 13.9 0l23.5 13.6c1.3 0.8 2.1 2.2 2.1 3.7 0 1.6-0.8 3-2.1 3.8l-23.5 13.5c-2.2 1.3-4.6 1.9-7 1.9zm0-34.6c-1.7 0-3.5 0.4-5.1 1.3l-23.4 13.6c-0.3 0.1-0.4 0.4-0.4 0.5 0 0.2 0.1 0.4 0.4 0.6l23.4 13.5q0 0 0 0c3.2 1.8 7.1 1.8 10.2 0l23.5-13.5c0.3-0.2 0.3-0.4 0.3-0.6 0-0.1 0-0.4-0.3-0.5l-23.5-13.6c-1.5-0.9-3.3-1.3-5.1-1.3z"/>
		<path id="&lt;Compound Path&gt;" fill-rule="evenodd" class="s3" d="m879.6 659.6c-5.3 0-10.5-1.3-15.2-4l-54.1-31.3c-2.6-1.5-4.1-4.1-4.1-7.1 0-3 1.5-5.6 4.1-7.1l54.1-31.3c9.4-5.4 21-5.4 30.3 0l54.2 31.3c2.6 1.5 4.1 4.1 4.1 7.1 0 3-1.5 5.6-4.1 7.1l-54.2 31.3c-4.6 2.7-9.9 4-15.1 4zm-12.7-8.3c7.8 4.5 17.5 4.5 25.4 0l54.1-31.3c1.5-0.8 1.6-2.2 1.6-2.8 0-0.6-0.1-2-1.6-2.8l-54.1-31.3c-7.9-4.5-17.6-4.5-25.4 0l-54.1 31.3c-1.5 0.8-1.6 2.2-1.6 2.8 0 0.6 0.1 2 1.6 2.8z"/>
		<path id="&lt;Compound Path&gt;" fill-rule="evenodd" class="s4" d="m-88.6 708.8c-5.2 0-10.5-1.3-15.1-4l-54.2-31.3c-2.6-1.5-4.1-4.1-4.1-7.1 0-3 1.5-5.7 4.1-7.1l54.2-31.3c9.3-5.4 20.9-5.4 30.3 0l54.1 31.3c2.6 1.4 4.1 4.1 4.1 7.1 0 3-1.5 5.6-4.1 7.1l-54.1 31.3c-4.7 2.7-9.9 4-15.2 4zm0-79.9c-4.4 0-8.7 1.2-12.7 3.4l-54.1 31.3c-1.5 0.8-1.6 2.2-1.6 2.8 0 0.5 0.1 1.9 1.6 2.8l54.1 31.2c7.9 4.6 17.6 4.6 25.4 0l54.1-31.2c1.5-0.9 1.6-2.3 1.6-2.8 0-0.6-0.1-2-1.6-2.8l-54.1-31.3c-3.9-2.2-8.3-3.4-12.7-3.4z"/>
		<g id="&lt;Group&gt;">
			<path id="&lt;Path&gt;" class="s5" d="m459.7 845.2l-387.2-223.5c-5.6-3.3-4.9-9 1.6-12.7l248.5-143.5c6.5-3.7 16.3-4.2 22-0.9l387.1 223.5c5.6 3.3 4.9 9-1.6 12.7l-248.4 143.5c-6.5 3.7-16.4 4.1-22 0.9z"/>
			<path id="&lt;Compound Path&gt;" fill-rule="evenodd" class="s6" d="m468.5 885.5c-4.5 0-8.8-0.9-12.2-2.8l-441.8-255.1c-3.6-2.1-5.6-5.1-5.6-8.5 0-3.8 2.7-7.6 7.4-10.3l301.2-176.5c8.3-4.8 20.4-5.2 27.6-1l441.8 255c3.6 2.1 5.6 5.1 5.6 8.5 0 3.9-2.7 7.7-7.4 10.4l-301.1 176.4c-4.5 2.6-10.1 3.9-15.5 3.9zm-135.5-452.1c-4.5 0-9.3 1.1-13 3.2l-301.2 176.5c-3 1.8-4.9 4-4.9 6 0 2 1.7 3.4 3.1 4.2l441.8 255q0 0 0 0c5.7 3.3 16 2.8 22.7-1l301.1-176.4c3.1-1.8 4.9-4.1 4.9-6.1 0-1.9-1.6-3.3-3.1-4.1l-441.8-255.1c-2.5-1.5-5.9-2.2-9.6-2.2z"/>
			<path id="&lt;Path&gt;" class="s7" d="m834.5 313.4l-385.5-222.6c-2.7-1.5-5.5-1.9-7.9-1.1q0 0-0.1 0l-7.1 2.5 2.5 0.5c-1 1.2-1.8 2.7-2.3 4.5l-87.2 283.1c-2.2 7 1 15.5 7 19l385.6 222.7q1.4 0.8 2.9 1.1l-1 2.1 6.8-2.4c2.8-1.1 5.1-3.6 6.2-7.2l87.2-283.1c2.2-7.1-1-15.6-7.1-19.1z"/>
			<path id="&lt;Path&gt;" class="s8" d="m725.7 632.5l0.2 0.2-380.9-219.9c-5.6-3.2-15.4-2.8-21.9 0.9l-246 142.1-8.2-3.2 2.3 11.6v-0.1c0.3 1.8 1.5 3.4 3.7 4.7l384.3 221.9c5.6 3.2 15.4 2.8 21.9-0.9l246.7-142.5c3-1.7 4.8-3.9 5.2-6.1v0.1l2.4-11.2z"/>
			<path id="&lt;Path&gt;" class="s9" d="m459.7 780.6l-387.2-223.5c-5.6-3.3-4.9-9 1.6-12.8l248.5-143.4c6.5-3.8 16.3-4.2 22-0.9l387.1 223.5c5.6 3.2 4.9 8.9-1.6 12.7l-248.4 143.4c-6.5 3.8-16.4 4.2-22 1z"/>
			<path id="&lt;Path&gt;" class="s1" d="m730.1 633.2l-248.4 143.4c-6.5 3.8-16.4 4.2-22 0.9l-387.2-223.5c-1.9-1.1-3-2.5-3.5-4-0.7 2.6 0.4 5.2 3.5 7.1l387.2 223.5c5.6 3.2 15.5 2.8 22-1l248.4-143.4c4.3-2.5 6-5.8 5.1-8.7-0.6 2-2.2 4-5.1 5.7z"/>
			<g id="&lt;Group&gt;" style="opacity: .4">
				<path id="&lt;Path&gt;" class="s10" d="m257.2 520.8l-13.1-7.6c-1-0.6-0.9-1.6 0.3-2.3l15.4-8.9c1.2-0.7 3.1-0.8 4.1-0.2l13.1 7.5c1.1 0.6 0.9 1.7-0.3 2.4l-15.4 8.9c-1.2 0.7-3.1 0.8-4.1 0.2z"/>
				<path id="&lt;Path&gt;" class="s10" d="m277.4 532.4l-13.1-7.5c-1-0.6-0.9-1.7 0.3-2.4l15.4-8.9c1.2-0.7 3.1-0.8 4.1-0.2l13.1 7.6c1 0.6 0.9 1.7-0.3 2.4l-15.4 8.9c-1.2 0.7-3.1 0.7-4.1 0.1z"/>
				<path id="&lt;Path&gt;" class="s10" d="m297.6 544.1l-13.1-7.6c-1.1-0.6-0.9-1.6 0.3-2.3l15.4-8.9c1.2-0.7 3-0.8 4.1-0.2l13.1 7.5c1 0.7 0.9 1.7-0.3 2.4l-15.5 8.9c-1.2 0.7-3 0.8-4 0.2z"/>
				<path id="&lt;Path&gt;" class="s10" d="m325.5 534.5l-13.1-7.6c-1.1-0.6-0.9-1.6 0.3-2.3l12.9-7.5c1.3-0.7 3.1-0.8 4.1-0.2l13.1 7.6c1.1 0.6 0.9 1.6-0.3 2.3l-12.9 7.5c-1.3 0.7-3.1 0.8-4.1 0.2z"/>
				<path id="&lt;Path&gt;" class="s10" d="m345.7 546.1l-13.1-7.5c-1.1-0.6-0.9-1.7 0.3-2.4l12.9-7.5c1.2-0.7 3.1-0.7 4.1-0.1l13.1 7.5c1 0.6 0.9 1.7-0.3 2.4l-13 7.4c-1.2 0.7-3 0.8-4 0.2z"/>
				<path id="&lt;Path&gt;" class="s10" d="m365.8 557.8l-13-7.6c-1.1-0.6-1-1.6 0.3-2.3l12.9-7.5c1.2-0.7 3.1-0.8 4.1-0.2l13.1 7.6c1 0.6 0.9 1.6-0.3 2.3l-13 7.5c-1.2 0.7-3 0.8-4.1 0.2z"/>
				<path id="&lt;Path&gt;" class="s10" d="m386 569.4l-13.1-7.5c-1-0.6-0.9-1.7 0.3-2.4l13-7.5c1.2-0.7 3-0.7 4.1-0.1l13.1 7.5c1 0.6 0.9 1.7-0.3 2.4l-13 7.5c-1.2 0.7-3 0.7-4.1 0.1z"/>
				<path id="&lt;Path&gt;" class="s10" d="m406.2 581.1l-13.1-7.6c-1-0.6-0.9-1.6 0.3-2.3l13-7.5c1.2-0.7 3-0.8 4.1-0.2l13 7.6c1.1 0.6 1 1.6-0.3 2.3l-12.9 7.5c-1.2 0.7-3.1 0.8-4.1 0.2z"/>
				<path id="&lt;Path&gt;" class="s10" d="m426.4 592.7l-13.1-7.5c-1-0.6-0.9-1.7 0.3-2.4l13-7.5c1.2-0.7 3-0.7 4.1-0.1l13 7.5c1.1 0.6 0.9 1.7-0.3 2.4l-12.9 7.5c-1.2 0.7-3.1 0.7-4.1 0.1z"/>
				<path id="&lt;Path&gt;" class="s10" d="m446.6 604.4l-13.1-7.6c-1.1-0.6-0.9-1.6 0.3-2.3l12.9-7.5c1.3-0.7 3.1-0.8 4.1-0.2l13.1 7.6c1.1 0.6 0.9 1.6-0.3 2.3l-12.9 7.5c-1.3 0.7-3.1 0.8-4.1 0.2z"/>
				<path id="&lt;Path&gt;" class="s10" d="m466.7 616l-13-7.5c-1.1-0.6-0.9-1.7 0.3-2.4l12.9-7.5c1.2-0.7 3.1-0.7 4.1-0.1l13.1 7.5c1 0.6 0.9 1.7-0.3 2.4l-13 7.5c-1.2 0.7-3 0.7-4.1 0.1z"/>
				<path id="&lt;Path&gt;" class="s10" d="m486.9 627.7l-13-7.6c-1.1-0.6-1-1.6 0.3-2.3l12.9-7.5c1.2-0.7 3.1-0.8 4.1-0.2l13.1 7.6c1 0.6 0.9 1.6-0.3 2.3l-13 7.5c-1.2 0.7-3 0.8-4.1 0.2z"/>
				<path id="&lt;Path&gt;" class="s10" d="m507.1 639.3l-13.1-7.5c-1-0.6-0.9-1.7 0.3-2.4l13-7.4c1.2-0.7 3-0.8 4.1-0.2l13.1 7.5c1 0.6 0.9 1.7-0.3 2.4l-13 7.5c-1.2 0.7-3 0.7-4.1 0.1z"/>
				<path id="&lt;Path&gt;" class="s10" d="m355.2 528.9l-13.1-7.5c-1-0.6-0.9-1.7 0.3-2.4l13-7.4c1.2-0.7 3-0.8 4.1-0.2l13 7.5c1.1 0.6 1 1.7-0.3 2.4l-12.9 7.5c-1.2 0.7-3 0.8-4.1 0.1z"/>
				<path id="&lt;Path&gt;" class="s10" d="m334.7 517.1l-13-7.5c-1.1-0.6-1-1.7 0.2-2.4l13-7.5c1.2-0.7 3-0.7 4.1-0.1l13.1 7.5c1 0.6 0.9 1.7-0.3 2.4l-13 7.4c-1.2 0.7-3 0.8-4.1 0.2z"/>
				<path id="&lt;Path&gt;" class="s10" d="m314.2 505.3l-28.1-16.3c-1.1-0.6-1-1.6 0.2-2.3l13-7.5c1.2-0.7 3-0.8 4.1-0.2l28.1 16.3c1.1 0.6 1 1.6-0.3 2.3l-12.9 7.5c-1.2 0.7-3 0.8-4.1 0.2z"/>
				<path id="&lt;Path&gt;" class="s10" d="m328.5 490.9l-22.8-13.2c-1-0.6-0.9-1.7 0.3-2.4l12.9-7.5c1.3-0.7 3.1-0.7 4.1-0.1l22.9 13.2c1 0.6 0.9 1.6-0.3 2.3l-13 7.5c-1.2 0.7-3 0.8-4.1 0.2z"/>
				<path id="&lt;Path&gt;" class="s10" d="m375.4 540.6l-13.1-7.5c-1-0.7-0.9-1.7 0.3-2.4l13-7.5c1.2-0.7 3-0.8 4.1-0.2l13 7.6c1.1 0.6 0.9 1.7-0.3 2.4l-12.9 7.4c-1.2 0.7-3.1 0.8-4.1 0.2z"/>
				<path id="&lt;Path&gt;" class="s10" d="m395.6 552.3l-13.1-7.6c-1-0.6-0.9-1.7 0.3-2.4l12.9-7.4c1.3-0.7 3.1-0.8 4.1-0.2l13.1 7.5c1.1 0.6 0.9 1.7-0.3 2.4l-12.9 7.5c-1.2 0.7-3.1 0.8-4.1 0.2z"/>
				<path id="&lt;Path&gt;" class="s10" d="m415.8 563.9l-13.1-7.5c-1.1-0.6-0.9-1.7 0.3-2.4l12.9-7.5c1.2-0.7 3.1-0.8 4.1-0.2l13.1 7.6c1 0.6 0.9 1.7-0.3 2.4l-13 7.4c-1.2 0.7-3 0.8-4 0.2z"/>
				<path id="&lt;Path&gt;" class="s10" d="m435.9 575.6l-13-7.6c-1.1-0.6-0.9-1.7 0.3-2.4l12.9-7.4c1.2-0.7 3.1-0.8 4.1-0.2l13.1 7.5c1 0.7 0.9 1.7-0.3 2.4l-13 7.5c-1.2 0.7-3 0.8-4.1 0.2z"/>
				<path id="&lt;Path&gt;" class="s10" d="m456.1 587.2l-13-7.5c-1.1-0.6-1-1.7 0.2-2.4l13-7.5c1.2-0.7 3-0.8 4.1-0.1l13.1 7.5c1 0.6 0.9 1.7-0.3 2.4l-13 7.4c-1.2 0.7-3 0.8-4.1 0.2z"/>
				<path id="&lt;Path&gt;" class="s10" d="m476.3 598.9l-13.1-7.6c-1-0.6-0.9-1.6 0.3-2.3l13-7.5c1.2-0.7 3-0.8 4.1-0.2l13 7.6c1.1 0.6 1 1.6-0.3 2.3l-12.9 7.5c-1.2 0.7-3 0.8-4.1 0.2z"/>
				<path id="&lt;Path&gt;" class="s10" d="m496.5 610.5l-13.1-7.5c-1-0.6-0.9-1.7 0.3-2.4l13-7.5c1.2-0.7 3-0.7 4.1-0.1l13 7.5c1.1 0.6 0.9 1.7-0.3 2.4l-12.9 7.4c-1.2 0.7-3.1 0.8-4.1 0.2z"/>
				<path id="&lt;Path&gt;" class="s10" d="m516.7 622.2l-13.1-7.6c-1-0.6-0.9-1.6 0.3-2.3l12.9-7.5c1.3-0.7 3.1-0.8 4.1-0.2l13.1 7.6c1.1 0.6 0.9 1.6-0.3 2.3l-12.9 7.5c-1.2 0.7-3.1 0.8-4.1 0.2z"/>
				<path id="&lt;Path&gt;" class="s10" d="m536.9 633.8l-13.1-7.5c-1.1-0.6-0.9-1.7 0.3-2.4l12.9-7.5c1.2-0.7 3.1-0.7 4.1-0.1l13.1 7.5c1 0.6 0.9 1.7-0.3 2.4l-13 7.5c-1.2 0.7-3 0.7-4 0.1z"/>
				<path id="&lt;Path&gt;" class="s10" d="m572.7 654.5l-28.5-16.4c-1-0.6-0.9-1.7 0.3-2.4l13-7.5c1.2-0.7 3-0.7 4.1-0.1l28.5 16.4c1 0.6 0.9 1.7-0.3 2.4l-13 7.5c-1.2 0.7-3 0.7-4.1 0.1z"/>
				<path id="&lt;Path&gt;" class="s10" d="m612 631.9l-24-13.9c-1.1-0.7-1-1.7 0.3-2.4l12.9-7.5c1.2-0.7 3-0.8 4.1-0.2l24.1 13.9c1 0.6 0.9 1.7-0.3 2.4l-13 7.5c-1.2 0.7-3 0.8-4.1 0.2z"/>
				<path id="&lt;Path&gt;" class="s10" d="m410.7 538.3l-13-7.5c-1.1-0.6-1-1.7 0.3-2.4l12.9-7.5c1.2-0.7 3.1-0.7 4.1-0.1l13.1 7.5c1 0.6 0.9 1.7-0.3 2.4l-13 7.4c-1.2 0.7-3 0.8-4.1 0.2z"/>
				<path id="&lt;Path&gt;" class="s10" d="m390 526.4l-13-7.6c-1.1-0.6-0.9-1.6 0.3-2.3l12.9-7.5c1.2-0.7 3.1-0.8 4.1-0.2l13.1 7.6c1 0.6 0.9 1.6-0.3 2.3l-13 7.5c-1.2 0.7-3 0.8-4.1 0.2z"/>
				<path id="&lt;Path&gt;" class="s10" d="m369.4 514.4l-13.1-7.5c-1.1-0.6-0.9-1.7 0.3-2.4l12.9-7.5c1.2-0.7 3.1-0.7 4.1-0.1l13.1 7.5c1.1 0.6 0.9 1.7-0.3 2.4l-12.9 7.5c-1.3 0.7-3.1 0.7-4.1 0.1z"/>
				<path id="&lt;Path&gt;" class="s10" d="m348.7 502.5l-13.1-7.6c-1-0.6-0.9-1.6 0.3-2.3l13-7.5c1.2-0.7 3-0.8 4-0.2l13.1 7.6c1.1 0.6 0.9 1.6-0.3 2.3l-12.9 7.5c-1.2 0.7-3.1 0.8-4.1 0.2z"/>
				<path id="&lt;Path&gt;" class="s10" d="m430.9 550l-13.1-7.6c-1-0.6-0.9-1.6 0.3-2.3l13-7.5c1.2-0.7 3-0.8 4.1-0.2l13.1 7.6c1 0.6 0.9 1.6-0.3 2.3l-13 7.5c-1.2 0.7-3 0.8-4.1 0.2z"/>
				<path id="&lt;Path&gt;" class="s10" d="m451.1 561.6l-13.1-7.5c-1-0.6-0.9-1.7 0.3-2.4l13-7.5c1.2-0.7 3-0.7 4.1-0.1l13 7.5c1.1 0.6 1 1.7-0.3 2.4l-12.9 7.5c-1.2 0.7-3 0.7-4.1 0.1z"/>
				<path id="&lt;Path&gt;" class="s10" d="m471.3 573.3l-13.1-7.6c-1-0.6-0.9-1.6 0.3-2.3l13-7.5c1.2-0.7 3-0.8 4.1-0.2l13 7.6c1.1 0.6 0.9 1.6-0.3 2.3l-12.9 7.5c-1.2 0.7-3.1 0.8-4.1 0.2z"/>
				<path id="&lt;Path&gt;" class="s10" d="m491.5 584.9l-13.1-7.5c-1.1-0.6-0.9-1.7 0.3-2.4l12.9-7.5c1.3-0.7 3.1-0.7 4.1-0.1l13.1 7.5c1.1 0.6 0.9 1.7-0.3 2.4l-12.9 7.5c-1.3 0.7-3.1 0.7-4.1 0.1z"/>
				<path id="&lt;Path&gt;" class="s10" d="m511.7 596.6l-13.1-7.6c-1.1-0.6-0.9-1.6 0.3-2.3l12.9-7.5c1.2-0.7 3.1-0.8 4.1-0.2l13.1 7.6c1 0.6 0.9 1.6-0.3 2.3l-13 7.5c-1.2 0.7-3 0.8-4 0.2z"/>
				<path id="&lt;Path&gt;" class="s10" d="m531.8 608.2l-13-7.5c-1.1-0.6-1-1.7 0.3-2.4l12.9-7.5c1.2-0.7 3.1-0.7 4.1-0.1l13.1 7.5c1 0.6 0.9 1.7-0.3 2.4l-13 7.5c-1.2 0.7-3 0.7-4.1 0.1z"/>
				<path id="&lt;Path&gt;" class="s10" d="m552 619.9l-13.1-7.6c-1-0.6-0.9-1.6 0.3-2.3l13-7.5c1.2-0.7 3-0.8 4.1-0.2l13.1 7.6c1 0.6 0.9 1.6-0.3 2.3l-13 7.5c-1.2 0.7-3 0.8-4.1 0.2z"/>
				<path id="&lt;Path&gt;" class="s10" d="m572.2 631.5l-13.1-7.5c-1-0.6-0.9-1.7 0.3-2.4l13-7.4c1.2-0.7 3-0.8 4.1-0.2l13 7.5c1.1 0.6 1 1.7-0.3 2.4l-12.9 7.5c-1.2 0.7-3.1 0.7-4.1 0.1z"/>
				<path id="&lt;Path&gt;" class="s10" d="m592.4 643.2l-13.1-7.6c-1-0.6-0.9-1.6 0.3-2.3l13-7.5c1.2-0.7 3-0.8 4.1-0.2l13 7.6c1.1 0.6 0.9 1.6-0.3 2.3l-12.9 7.5c-1.2 0.7-3.1 0.8-4.1 0.2z"/>
				<path id="&lt;Path&gt;" class="s10" d="m400.1 509.5l-13.1-7.5c-1-0.7-0.9-1.7 0.3-2.4l13-7.5c1.2-0.7 3-0.8 4.1-0.2l13 7.6c1.1 0.6 1 1.7-0.2 2.3l-13 7.5c-1.2 0.7-3 0.8-4.1 0.2z"/>
				<path id="&lt;Path&gt;" class="s10" d="m380 497.9l-13-7.5c-1.1-0.7-1-1.7 0.2-2.4l13-7.5c1.2-0.7 3-0.8 4.1-0.2l13.1 7.6c1 0.6 0.9 1.7-0.3 2.4l-13 7.4c-1.2 0.7-3 0.8-4.1 0.2z"/>
				<path id="&lt;Path&gt;" class="s10" d="m359.9 486.3l-13-7.5c-1.1-0.6-0.9-1.7 0.3-2.4l12.9-7.5c1.2-0.7 3.1-0.8 4.1-0.1l13.1 7.5c1 0.6 0.9 1.7-0.3 2.4l-13 7.4c-1.2 0.7-3 0.8-4.1 0.2z"/>
				<path id="&lt;Path&gt;" class="s10" d="m339.9 474.7l-13.1-7.5c-1.1-0.6-0.9-1.7 0.3-2.4l12.9-7.5c1.2-0.7 3.1-0.8 4.1-0.1l13.1 7.5c1 0.6 0.9 1.7-0.3 2.4l-12.9 7.4c-1.3 0.7-3.1 0.8-4.1 0.2z"/>
				<path id="&lt;Path&gt;" class="s10" d="m360.5 462.8l-13.1-7.6c-1-0.6-0.9-1.6 0.3-2.3l4.3-2.5c1.2-0.7 3.1-0.8 4.1-0.2l13.1 7.6c1 0.6 0.9 1.6-0.3 2.3l-4.3 2.5c-1.2 0.7-3 0.8-4.1 0.2z"/>
				<path id="&lt;Path&gt;" class="s10" d="m386.7 477.9l-13.1-7.5c-1-0.6-0.9-1.7 0.3-2.4l4.3-2.5c1.2-0.7 3.1-0.7 4.1-0.1l13.1 7.5c1 0.6 0.9 1.7-0.3 2.4l-4.3 2.4c-1.2 0.7-3 0.8-4.1 0.2z"/>
				<path id="&lt;Path&gt;" class="s10" d="m406.7 489.5l-13.1-7.6c-1-0.6-0.9-1.6 0.3-2.3l4.3-2.5c1.2-0.7 3.1-0.8 4.1-0.2l13.1 7.6c1 0.6 0.9 1.6-0.3 2.3l-4.3 2.5c-1.2 0.7-3 0.8-4.1 0.2z"/>
				<path id="&lt;Path&gt;" class="s10" d="m426.7 501l-13.1-7.5c-1-0.6-0.9-1.7 0.3-2.4l4.3-2.5c1.2-0.7 3.1-0.7 4.1-0.1l13.1 7.5c1 0.6 0.9 1.7-0.3 2.4l-4.3 2.4c-1.2 0.7-3 0.8-4.1 0.2z"/>
				<path id="&lt;Path&gt;" class="s10" d="m446.7 512.6l-13.1-7.6c-1-0.6-0.9-1.7 0.3-2.4l4.3-2.4c1.2-0.7 3.1-0.8 4.1-0.2l13.1 7.6c1 0.6 0.9 1.6-0.3 2.3l-4.3 2.5c-1.2 0.7-3 0.8-4.1 0.2z"/>
				<path id="&lt;Path&gt;" class="s10" d="m558.4 577l-13.1-7.5c-1.1-0.6-0.9-1.7 0.3-2.4l4.3-2.5c1.2-0.7 3-0.7 4.1-0.1l13 7.5c1.1 0.6 1 1.7-0.3 2.4l-4.2 2.5c-1.3 0.7-3.1 0.7-4.1 0.1z"/>
				<path id="&lt;Path&gt;" class="s10" d="m578.4 588.6l-13.1-7.6c-1.1-0.6-0.9-1.6 0.3-2.3l4.3-2.5c1.2-0.7 3-0.8 4.1-0.2l13 7.6c1.1 0.6 1 1.6-0.3 2.3l-4.2 2.5c-1.3 0.7-3.1 0.8-4.1 0.2z"/>
				<path id="&lt;Path&gt;" class="s10" d="m598.4 600.1l-13.1-7.5c-1.1-0.6-0.9-1.7 0.3-2.4l4.3-2.5c1.2-0.7 3-0.7 4.1-0.1l13 7.5c1.1 0.6 1 1.7-0.3 2.4l-4.2 2.4c-1.3 0.7-3.1 0.8-4.1 0.2z"/>
				<path id="&lt;Path&gt;" class="s10" d="m618.4 611.7l-13.1-7.6c-1.1-0.6-0.9-1.6 0.3-2.3l4.3-2.5c1.2-0.7 3-0.8 4.1-0.2l13 7.6c1.1 0.6 1 1.6-0.3 2.3l-4.2 2.5c-1.3 0.7-3.1 0.8-4.1 0.2z"/>
				<path id="&lt;Path&gt;" class="s10" d="m420.3 521.1l-13.1-7.5c-1-0.6-0.9-1.7 0.3-2.4l13-7.4c1.2-0.7 3-0.8 4.1-0.2l13 7.5c1.1 0.6 0.9 1.7-0.3 2.4l-12.9 7.5c-1.2 0.7-3.1 0.8-4.1 0.1z"/>
				<path id="&lt;Path&gt;" class="s10" d="m440.5 532.8l-13.1-7.5c-1-0.7-0.9-1.7 0.3-2.4l12.9-7.5c1.3-0.7 3.1-0.8 4.1-0.2l13.1 7.6c1.1 0.6 0.9 1.7-0.3 2.4l-12.9 7.4c-1.2 0.7-3.1 0.8-4.1 0.2z"/>
				<path id="&lt;Path&gt;" class="s10" d="m460.7 544.5l-13.1-7.6c-1.1-0.6-0.9-1.7 0.3-2.4l12.9-7.4c1.2-0.7 3.1-0.8 4.1-0.2l13.1 7.5c1 0.7 0.9 1.7-0.3 2.4l-12.9 7.5c-1.3 0.7-3.1 0.8-4.1 0.2z"/>
				<path id="&lt;Path&gt;" class="s10" d="m480.8 556.1l-13-7.5c-1.1-0.6-0.9-1.7 0.3-2.4l12.9-7.5c1.2-0.7 3.1-0.8 4.1-0.1l13.1 7.5c1 0.6 0.9 1.7-0.3 2.4l-13 7.4c-1.2 0.7-3 0.8-4.1 0.2z"/>
				<path id="&lt;Path&gt;" class="s10" d="m501 567.8l-13-7.6c-1.1-0.6-1-1.7 0.2-2.3l13-7.5c1.2-0.7 3-0.8 4.1-0.2l13.1 7.5c1 0.7 0.9 1.7-0.3 2.4l-13 7.5c-1.2 0.7-3 0.8-4.1 0.2z"/>
				<path id="&lt;Path&gt;" class="s10" d="m521.2 579.4l-13.1-7.5c-1-0.6-0.9-1.7 0.3-2.4l13-7.5c1.2-0.7 3-0.7 4.1-0.1l13 7.5c1.1 0.6 1 1.7-0.3 2.4l-12.9 7.4c-1.2 0.7-3 0.8-4.1 0.2z"/>
				<path id="&lt;Path&gt;" class="s10" d="m541.4 591.1l-13.1-7.6c-1-0.6-0.9-1.6 0.3-2.3l13-7.5c1.2-0.7 3-0.8 4.1-0.2l13 7.6c1.1 0.6 0.9 1.6-0.3 2.3l-12.9 7.5c-1.2 0.7-3.1 0.8-4.1 0.2z"/>
				<path id="&lt;Path&gt;" class="s10" d="m561.6 602.7l-13.1-7.5c-1-0.6-0.9-1.7 0.3-2.4l12.9-7.5c1.3-0.7 3.1-0.7 4.1-0.1l13.1 7.5c1.1 0.6 0.9 1.7-0.3 2.4l-12.9 7.4c-1.2 0.7-3.1 0.8-4.1 0.2z"/>
				<path id="&lt;Path&gt;" class="s10" d="m581.8 614.4l-13.1-7.6c-1.1-0.6-0.9-1.6 0.3-2.3l12.9-7.5c1.2-0.7 3.1-0.8 4.1-0.2l13.1 7.6c1 0.6 0.9 1.6-0.3 2.3l-13 7.5c-1.2 0.7-3 0.8-4 0.2z"/>
				<path id="&lt;Path&gt;" class="s10" d="m304.9 522.6l-38.5-22.2c-1-0.6-0.9-1.7 0.3-2.4l13-7.5c1.2-0.7 3-0.8 4-0.1l38.5 22.2c1.1 0.6 1 1.6-0.3 2.3l-12.9 7.5c-1.2 0.7-3.1 0.8-4.1 0.2z"/>
				<path id="&lt;Path&gt;" class="s10" d="m552.9 665.7l-38.5-22.2c-1.1-0.6-1-1.6 0.3-2.3l12.9-7.5c1.2-0.7 3.1-0.8 4.1-0.2l38.5 22.2c1 0.6 0.9 1.7-0.3 2.4l-13 7.5c-1.2 0.7-3 0.8-4 0.1z"/>
				<path id="&lt;Path&gt;" class="s10" d="m472.1 644.9l-13-7.6c-1.1-0.6-0.9-1.6 0.3-2.3l15.4-8.9c1.2-0.7 3-0.8 4.1-0.2l13.1 7.5c1 0.6 0.9 1.7-0.3 2.4l-15.5 8.9c-1.2 0.7-3 0.8-4.1 0.2z"/>
				<path id="&lt;Path&gt;" class="s10" d="m325.6 560.3l-20.9-12.1c-1.1-0.6-1-1.7 0.3-2.4l15.4-8.9c1.2-0.7 3-0.8 4.1-0.1l20.9 12c1 0.6 0.9 1.7-0.3 2.4l-15.4 8.9c-1.2 0.7-3.1 0.8-4.1 0.2z"/>
				<path id="&lt;Path&gt;" class="s10" d="m452.7 633.7l-20.9-12.1c-1.1-0.6-0.9-1.7 0.3-2.4l15.4-8.9c1.2-0.7 3.1-0.8 4.1-0.2l20.9 12.1c1.1 0.6 0.9 1.7-0.3 2.4l-15.4 8.9c-1.2 0.7-3.1 0.8-4.1 0.2z"/>
				<path id="&lt;Path&gt;" class="s10" d="m354.7 577.1l-20.9-12.1c-1.1-0.6-0.9-1.7 0.3-2.4l15.4-8.9c1.2-0.7 3.1-0.7 4.1-0.1l20.9 12c1.1 0.6 0.9 1.7-0.3 2.4l-15.4 8.9c-1.2 0.7-3.1 0.8-4.1 0.2z"/>
				<path id="&lt;Path&gt;" class="s10" d="m353.7 553.6l90.9 52.5c1.1 0.7 1.1 1.7 0 2.4l-15.7 9.1c-1.1 0.6-3 0.6-4.1 0l-90.9-52.5z"/>
				<path id="&lt;Path&gt;" class="s10" d="m528.5 666l14.6 8.4c0.9 0.5 0.8 1.4-0.2 2l-6.3 3.6c-1 0.6-2.5 0.6-3.4 0.1l-14.6-8.4c-0.8-0.5-0.7-1.3 0.3-1.9l6.3-3.6c1-0.6 2.5-0.7 3.3-0.2z"/>
				<path id="&lt;Path&gt;" class="s10" d="m508.2 654.3l14.6 8.4c0.8 0.5 0.7 1.3-0.3 1.9l-6.3 3.6c-1 0.6-2.5 0.7-3.4 0.2l-14.5-8.4c-0.9-0.5-0.8-1.4 0.2-2l6.3-3.6c1-0.6 2.5-0.6 3.4-0.1z"/>
				<path id="&lt;Path&gt;" class="s10" d="m488 642.6l14.6 8.4c0.8 0.5 0.7 1.4-0.3 2l-6.3 3.6c-1 0.6-2.5 0.6-3.3 0.1l-14.6-8.4c-0.9-0.5-0.7-1.3 0.2-1.9l6.4-3.7c1-0.5 2.5-0.6 3.3-0.1z"/>
				<path id="&lt;Path&gt;" class="s10" d="m519.3 647.8l14.6 8.4c0.9 0.5 0.8 1.4-0.2 2l-6.4 3.6c-0.9 0.6-2.4 0.6-3.3 0.2l-14.6-8.5c-0.8-0.4-0.7-1.3 0.3-1.9l6.3-3.6c1-0.6 2.5-0.7 3.3-0.2z"/>
			</g>
			<g id="&lt;Group&gt;" style="opacity: .4">
				<path id="&lt;Path&gt;" class="s10" d="m257.2 520.8l-13.1-7.6c-1-0.6-0.9-1.6 0.3-2.3l15.4-8.9c1.2-0.7 3.1-0.8 4.1-0.2l13.1 7.5c1.1 0.6 0.9 1.7-0.3 2.4l-15.4 8.9c-1.2 0.7-3.1 0.8-4.1 0.2z"/>
				<path id="&lt;Path&gt;" class="s10" d="m277.4 532.4l-13.1-7.5c-1-0.6-0.9-1.7 0.3-2.4l15.4-8.9c1.2-0.7 3.1-0.8 4.1-0.2l13.1 7.6c1 0.6 0.9 1.7-0.3 2.4l-15.4 8.9c-1.2 0.7-3.1 0.7-4.1 0.1z"/>
				<path id="&lt;Path&gt;" class="s10" d="m297.6 544.1l-13.1-7.6c-1.1-0.6-0.9-1.6 0.3-2.3l15.4-8.9c1.2-0.7 3-0.8 4.1-0.2l13.1 7.5c1 0.7 0.9 1.7-0.3 2.4l-15.5 8.9c-1.2 0.7-3 0.8-4 0.2z"/>
				<path id="&lt;Path&gt;" class="s10" d="m325.5 534.5l-13.1-7.6c-1.1-0.6-0.9-1.6 0.3-2.3l12.9-7.5c1.3-0.7 3.1-0.8 4.1-0.2l13.1 7.6c1.1 0.6 0.9 1.6-0.3 2.3l-12.9 7.5c-1.3 0.7-3.1 0.8-4.1 0.2z"/>
				<path id="&lt;Path&gt;" class="s10" d="m345.7 546.1l-13.1-7.5c-1.1-0.6-0.9-1.7 0.3-2.4l12.9-7.5c1.2-0.7 3.1-0.7 4.1-0.1l13.1 7.5c1 0.6 0.9 1.7-0.3 2.4l-13 7.4c-1.2 0.7-3 0.8-4 0.2z"/>
				<path id="&lt;Path&gt;" class="s10" d="m365.8 557.8l-13-7.6c-1.1-0.6-1-1.6 0.3-2.3l12.9-7.5c1.2-0.7 3.1-0.8 4.1-0.2l13.1 7.6c1 0.6 0.9 1.6-0.3 2.3l-13 7.5c-1.2 0.7-3 0.8-4.1 0.2z"/>
				<path id="&lt;Path&gt;" class="s10" d="m386 569.4l-13.1-7.5c-1-0.6-0.9-1.7 0.3-2.4l13-7.5c1.2-0.7 3-0.7 4.1-0.1l13.1 7.5c1 0.6 0.9 1.7-0.3 2.4l-13 7.5c-1.2 0.7-3 0.7-4.1 0.1z"/>
				<path id="&lt;Path&gt;" class="s10" d="m406.2 581.1l-13.1-7.6c-1-0.6-0.9-1.6 0.3-2.3l13-7.5c1.2-0.7 3-0.8 4.1-0.2l13 7.6c1.1 0.6 1 1.6-0.3 2.3l-12.9 7.5c-1.2 0.7-3.1 0.8-4.1 0.2z"/>
				<path id="&lt;Path&gt;" class="s10" d="m426.4 592.7l-13.1-7.5c-1-0.6-0.9-1.7 0.3-2.4l13-7.5c1.2-0.7 3-0.7 4.1-0.1l13 7.5c1.1 0.6 0.9 1.7-0.3 2.4l-12.9 7.5c-1.2 0.7-3.1 0.7-4.1 0.1z"/>
				<path id="&lt;Path&gt;" class="s10" d="m446.6 604.4l-13.1-7.6c-1.1-0.6-0.9-1.6 0.3-2.3l12.9-7.5c1.3-0.7 3.1-0.8 4.1-0.2l13.1 7.6c1.1 0.6 0.9 1.6-0.3 2.3l-12.9 7.5c-1.3 0.7-3.1 0.8-4.1 0.2z"/>
				<path id="&lt;Path&gt;" class="s10" d="m466.7 616l-13-7.5c-1.1-0.6-0.9-1.7 0.3-2.4l12.9-7.5c1.2-0.7 3.1-0.7 4.1-0.1l13.1 7.5c1 0.6 0.9 1.7-0.3 2.4l-13 7.5c-1.2 0.7-3 0.7-4.1 0.1z"/>
				<path id="&lt;Path&gt;" class="s10" d="m486.9 627.7l-13-7.6c-1.1-0.6-1-1.6 0.3-2.3l12.9-7.5c1.2-0.7 3.1-0.8 4.1-0.2l13.1 7.6c1 0.6 0.9 1.6-0.3 2.3l-13 7.5c-1.2 0.7-3 0.8-4.1 0.2z"/>
				<path id="&lt;Path&gt;" class="s10" d="m507.1 639.3l-13.1-7.5c-1-0.6-0.9-1.7 0.3-2.4l13-7.4c1.2-0.7 3-0.8 4.1-0.2l13.1 7.5c1 0.6 0.9 1.7-0.3 2.4l-13 7.5c-1.2 0.7-3 0.7-4.1 0.1z"/>
				<path id="&lt;Path&gt;" class="s10" d="m355.2 528.9l-13.1-7.5c-1-0.6-0.9-1.7 0.3-2.4l13-7.4c1.2-0.7 3-0.8 4.1-0.2l13 7.5c1.1 0.6 1 1.7-0.3 2.4l-12.9 7.5c-1.2 0.7-3 0.8-4.1 0.1z"/>
				<path id="&lt;Path&gt;" class="s10" d="m334.7 517.1l-13-7.5c-1.1-0.6-1-1.7 0.2-2.4l13-7.5c1.2-0.7 3-0.7 4.1-0.1l13.1 7.5c1 0.6 0.9 1.7-0.3 2.4l-13 7.4c-1.2 0.7-3 0.8-4.1 0.2z"/>
				<path id="&lt;Path&gt;" class="s10" d="m314.2 505.3l-28.1-16.3c-1.1-0.6-1-1.6 0.2-2.3l13-7.5c1.2-0.7 3-0.8 4.1-0.2l28.1 16.3c1.1 0.6 1 1.6-0.3 2.3l-12.9 7.5c-1.2 0.7-3 0.8-4.1 0.2z"/>
				<path id="&lt;Path&gt;" class="s10" d="m328.5 490.9l-22.8-13.2c-1-0.6-0.9-1.7 0.3-2.4l12.9-7.5c1.3-0.7 3.1-0.7 4.1-0.1l22.9 13.2c1 0.6 0.9 1.6-0.3 2.3l-13 7.5c-1.2 0.7-3 0.8-4.1 0.2z"/>
				<path id="&lt;Path&gt;" class="s10" d="m375.4 540.6l-13.1-7.5c-1-0.7-0.9-1.7 0.3-2.4l13-7.5c1.2-0.7 3-0.8 4.1-0.2l13 7.6c1.1 0.6 0.9 1.7-0.3 2.4l-12.9 7.4c-1.2 0.7-3.1 0.8-4.1 0.2z"/>
				<path id="&lt;Path&gt;" class="s10" d="m395.6 552.3l-13.1-7.6c-1-0.6-0.9-1.7 0.3-2.4l12.9-7.4c1.3-0.7 3.1-0.8 4.1-0.2l13.1 7.5c1.1 0.6 0.9 1.7-0.3 2.4l-12.9 7.5c-1.2 0.7-3.1 0.8-4.1 0.2z"/>
				<path id="&lt;Path&gt;" class="s10" d="m415.8 563.9l-13.1-7.5c-1.1-0.6-0.9-1.7 0.3-2.4l12.9-7.5c1.2-0.7 3.1-0.8 4.1-0.2l13.1 7.6c1 0.6 0.9 1.7-0.3 2.4l-13 7.4c-1.2 0.7-3 0.8-4 0.2z"/>
				<path id="&lt;Path&gt;" class="s10" d="m435.9 575.6l-13-7.6c-1.1-0.6-0.9-1.7 0.3-2.4l12.9-7.4c1.2-0.7 3.1-0.8 4.1-0.2l13.1 7.5c1 0.7 0.9 1.7-0.3 2.4l-13 7.5c-1.2 0.7-3 0.8-4.1 0.2z"/>
				<path id="&lt;Path&gt;" class="s10" d="m456.1 587.2l-13-7.5c-1.1-0.6-1-1.7 0.2-2.4l13-7.5c1.2-0.7 3-0.8 4.1-0.1l13.1 7.5c1 0.6 0.9 1.7-0.3 2.4l-13 7.4c-1.2 0.7-3 0.8-4.1 0.2z"/>
				<path id="&lt;Path&gt;" class="s10" d="m476.3 598.9l-13.1-7.6c-1-0.6-0.9-1.6 0.3-2.3l13-7.5c1.2-0.7 3-0.8 4.1-0.2l13 7.6c1.1 0.6 1 1.6-0.3 2.3l-12.9 7.5c-1.2 0.7-3 0.8-4.1 0.2z"/>
				<path id="&lt;Path&gt;" class="s10" d="m496.5 610.5l-13.1-7.5c-1-0.6-0.9-1.7 0.3-2.4l13-7.5c1.2-0.7 3-0.7 4.1-0.1l13 7.5c1.1 0.6 0.9 1.7-0.3 2.4l-12.9 7.4c-1.2 0.7-3.1 0.8-4.1 0.2z"/>
				<path id="&lt;Path&gt;" class="s10" d="m516.7 622.2l-13.1-7.6c-1-0.6-0.9-1.6 0.3-2.3l12.9-7.5c1.3-0.7 3.1-0.8 4.1-0.2l13.1 7.6c1.1 0.6 0.9 1.6-0.3 2.3l-12.9 7.5c-1.2 0.7-3.1 0.8-4.1 0.2z"/>
				<path id="&lt;Path&gt;" class="s10" d="m536.9 633.8l-13.1-7.5c-1.1-0.6-0.9-1.7 0.3-2.4l12.9-7.5c1.2-0.7 3.1-0.7 4.1-0.1l13.1 7.5c1 0.6 0.9 1.7-0.3 2.4l-13 7.5c-1.2 0.7-3 0.7-4 0.1z"/>
				<path id="&lt;Path&gt;" class="s10" d="m572.7 654.5l-28.5-16.4c-1-0.6-0.9-1.7 0.3-2.4l13-7.5c1.2-0.7 3-0.7 4.1-0.1l28.5 16.4c1 0.6 0.9 1.7-0.3 2.4l-13 7.5c-1.2 0.7-3 0.7-4.1 0.1z"/>
				<path id="&lt;Path&gt;" class="s10" d="m612 631.9l-24-13.9c-1.1-0.7-1-1.7 0.3-2.4l12.9-7.5c1.2-0.7 3-0.8 4.1-0.2l24.1 13.9c1 0.6 0.9 1.7-0.3 2.4l-13 7.5c-1.2 0.7-3 0.8-4.1 0.2z"/>
				<path id="&lt;Path&gt;" class="s10" d="m410.7 538.3l-13-7.5c-1.1-0.6-1-1.7 0.3-2.4l12.9-7.5c1.2-0.7 3.1-0.7 4.1-0.1l13.1 7.5c1 0.6 0.9 1.7-0.3 2.4l-13 7.4c-1.2 0.7-3 0.8-4.1 0.2z"/>
				<path id="&lt;Path&gt;" class="s10" d="m390 526.4l-13-7.6c-1.1-0.6-0.9-1.6 0.3-2.3l12.9-7.5c1.2-0.7 3.1-0.8 4.1-0.2l13.1 7.6c1 0.6 0.9 1.6-0.3 2.3l-13 7.5c-1.2 0.7-3 0.8-4.1 0.2z"/>
				<path id="&lt;Path&gt;" class="s10" d="m369.4 514.4l-13.1-7.5c-1.1-0.6-0.9-1.7 0.3-2.4l12.9-7.5c1.2-0.7 3.1-0.7 4.1-0.1l13.1 7.5c1.1 0.6 0.9 1.7-0.3 2.4l-12.9 7.5c-1.3 0.7-3.1 0.7-4.1 0.1z"/>
				<path id="&lt;Path&gt;" class="s10" d="m348.7 502.5l-13.1-7.6c-1-0.6-0.9-1.6 0.3-2.3l13-7.5c1.2-0.7 3-0.8 4-0.2l13.1 7.6c1.1 0.6 0.9 1.6-0.3 2.3l-12.9 7.5c-1.2 0.7-3.1 0.8-4.1 0.2z"/>
				<path id="&lt;Path&gt;" class="s10" d="m430.9 550l-13.1-7.6c-1-0.6-0.9-1.6 0.3-2.3l13-7.5c1.2-0.7 3-0.8 4.1-0.2l13.1 7.6c1 0.6 0.9 1.6-0.3 2.3l-13 7.5c-1.2 0.7-3 0.8-4.1 0.2z"/>
				<path id="&lt;Path&gt;" class="s10" d="m451.1 561.6l-13.1-7.5c-1-0.6-0.9-1.7 0.3-2.4l13-7.5c1.2-0.7 3-0.7 4.1-0.1l13 7.5c1.1 0.6 1 1.7-0.3 2.4l-12.9 7.5c-1.2 0.7-3 0.7-4.1 0.1z"/>
				<path id="&lt;Path&gt;" class="s10" d="m471.3 573.3l-13.1-7.6c-1-0.6-0.9-1.6 0.3-2.3l13-7.5c1.2-0.7 3-0.8 4.1-0.2l13 7.6c1.1 0.6 0.9 1.6-0.3 2.3l-12.9 7.5c-1.2 0.7-3.1 0.8-4.1 0.2z"/>
				<path id="&lt;Path&gt;" class="s10" d="m491.5 584.9l-13.1-7.5c-1.1-0.6-0.9-1.7 0.3-2.4l12.9-7.5c1.3-0.7 3.1-0.7 4.1-0.1l13.1 7.5c1.1 0.6 0.9 1.7-0.3 2.4l-12.9 7.5c-1.3 0.7-3.1 0.7-4.1 0.1z"/>
				<path id="&lt;Path&gt;" class="s10" d="m511.7 596.6l-13.1-7.6c-1.1-0.6-0.9-1.6 0.3-2.3l12.9-7.5c1.2-0.7 3.1-0.8 4.1-0.2l13.1 7.6c1 0.6 0.9 1.6-0.3 2.3l-13 7.5c-1.2 0.7-3 0.8-4 0.2z"/>
				<path id="&lt;Path&gt;" class="s10" d="m531.8 608.2l-13-7.5c-1.1-0.6-1-1.7 0.3-2.4l12.9-7.5c1.2-0.7 3.1-0.7 4.1-0.1l13.1 7.5c1 0.6 0.9 1.7-0.3 2.4l-13 7.5c-1.2 0.7-3 0.7-4.1 0.1z"/>
				<path id="&lt;Path&gt;" class="s10" d="m552 619.9l-13.1-7.6c-1-0.6-0.9-1.6 0.3-2.3l13-7.5c1.2-0.7 3-0.8 4.1-0.2l13.1 7.6c1 0.6 0.9 1.6-0.3 2.3l-13 7.5c-1.2 0.7-3 0.8-4.1 0.2z"/>
				<path id="&lt;Path&gt;" class="s10" d="m572.2 631.5l-13.1-7.5c-1-0.6-0.9-1.7 0.3-2.4l13-7.4c1.2-0.7 3-0.8 4.1-0.2l13 7.5c1.1 0.6 1 1.7-0.3 2.4l-12.9 7.5c-1.2 0.7-3.1 0.7-4.1 0.1z"/>
				<path id="&lt;Path&gt;" class="s10" d="m592.4 643.2l-13.1-7.6c-1-0.6-0.9-1.6 0.3-2.3l13-7.5c1.2-0.7 3-0.8 4.1-0.2l13 7.6c1.1 0.6 0.9 1.6-0.3 2.3l-12.9 7.5c-1.2 0.7-3.1 0.8-4.1 0.2z"/>
				<path id="&lt;Path&gt;" class="s10" d="m400.1 509.5l-13.1-7.5c-1-0.7-0.9-1.7 0.3-2.4l13-7.5c1.2-0.7 3-0.8 4.1-0.2l13 7.6c1.1 0.6 1 1.7-0.2 2.3l-13 7.5c-1.2 0.7-3 0.8-4.1 0.2z"/>
				<path id="&lt;Path&gt;" class="s10" d="m380 497.9l-13-7.5c-1.1-0.7-1-1.7 0.2-2.4l13-7.5c1.2-0.7 3-0.8 4.1-0.2l13.1 7.6c1 0.6 0.9 1.7-0.3 2.4l-13 7.4c-1.2 0.7-3 0.8-4.1 0.2z"/>
				<path id="&lt;Path&gt;" class="s10" d="m359.9 486.3l-13-7.5c-1.1-0.6-0.9-1.7 0.3-2.4l12.9-7.5c1.2-0.7 3.1-0.8 4.1-0.1l13.1 7.5c1 0.6 0.9 1.7-0.3 2.4l-13 7.4c-1.2 0.7-3 0.8-4.1 0.2z"/>
				<path id="&lt;Path&gt;" class="s10" d="m339.9 474.7l-13.1-7.5c-1.1-0.6-0.9-1.7 0.3-2.4l12.9-7.5c1.2-0.7 3.1-0.8 4.1-0.1l13.1 7.5c1 0.6 0.9 1.7-0.3 2.4l-12.9 7.4c-1.3 0.7-3.1 0.8-4.1 0.2z"/>
				<path id="&lt;Path&gt;" class="s10" d="m360.5 462.8l-13.1-7.6c-1-0.6-0.9-1.6 0.3-2.3l4.3-2.5c1.2-0.7 3.1-0.8 4.1-0.2l13.1 7.6c1 0.6 0.9 1.6-0.3 2.3l-4.3 2.5c-1.2 0.7-3 0.8-4.1 0.2z"/>
				<path id="&lt;Path&gt;" class="s10" d="m386.7 477.9l-13.1-7.5c-1-0.6-0.9-1.7 0.3-2.4l4.3-2.5c1.2-0.7 3.1-0.7 4.1-0.1l13.1 7.5c1 0.6 0.9 1.7-0.3 2.4l-4.3 2.4c-1.2 0.7-3 0.8-4.1 0.2z"/>
				<path id="&lt;Path&gt;" class="s10" d="m406.7 489.5l-13.1-7.6c-1-0.6-0.9-1.6 0.3-2.3l4.3-2.5c1.2-0.7 3.1-0.8 4.1-0.2l13.1 7.6c1 0.6 0.9 1.6-0.3 2.3l-4.3 2.5c-1.2 0.7-3 0.8-4.1 0.2z"/>
				<path id="&lt;Path&gt;" class="s10" d="m426.7 501l-13.1-7.5c-1-0.6-0.9-1.7 0.3-2.4l4.3-2.5c1.2-0.7 3.1-0.7 4.1-0.1l13.1 7.5c1 0.6 0.9 1.7-0.3 2.4l-4.3 2.4c-1.2 0.7-3 0.8-4.1 0.2z"/>
				<path id="&lt;Path&gt;" class="s10" d="m446.7 512.6l-13.1-7.6c-1-0.6-0.9-1.7 0.3-2.4l4.3-2.4c1.2-0.7 3.1-0.8 4.1-0.2l13.1 7.6c1 0.6 0.9 1.6-0.3 2.3l-4.3 2.5c-1.2 0.7-3 0.8-4.1 0.2z"/>
				<path id="&lt;Path&gt;" class="s10" d="m558.4 577l-13.1-7.5c-1.1-0.6-0.9-1.7 0.3-2.4l4.3-2.5c1.2-0.7 3-0.7 4.1-0.1l13 7.5c1.1 0.6 1 1.7-0.3 2.4l-4.2 2.5c-1.3 0.7-3.1 0.7-4.1 0.1z"/>
				<path id="&lt;Path&gt;" class="s10" d="m578.4 588.6l-13.1-7.6c-1.1-0.6-0.9-1.6 0.3-2.3l4.3-2.5c1.2-0.7 3-0.8 4.1-0.2l13 7.6c1.1 0.6 1 1.6-0.3 2.3l-4.2 2.5c-1.3 0.7-3.1 0.8-4.1 0.2z"/>
				<path id="&lt;Path&gt;" class="s10" d="m598.4 600.1l-13.1-7.5c-1.1-0.6-0.9-1.7 0.3-2.4l4.3-2.5c1.2-0.7 3-0.7 4.1-0.1l13 7.5c1.1 0.6 1 1.7-0.3 2.4l-4.2 2.4c-1.3 0.7-3.1 0.8-4.1 0.2z"/>
				<path id="&lt;Path&gt;" class="s10" d="m618.4 611.7l-13.1-7.6c-1.1-0.6-0.9-1.6 0.3-2.3l4.3-2.5c1.2-0.7 3-0.8 4.1-0.2l13 7.6c1.1 0.6 1 1.6-0.3 2.3l-4.2 2.5c-1.3 0.7-3.1 0.8-4.1 0.2z"/>
				<path id="&lt;Path&gt;" class="s10" d="m420.3 521.1l-13.1-7.5c-1-0.6-0.9-1.7 0.3-2.4l13-7.4c1.2-0.7 3-0.8 4.1-0.2l13 7.5c1.1 0.6 0.9 1.7-0.3 2.4l-12.9 7.5c-1.2 0.7-3.1 0.8-4.1 0.1z"/>
				<path id="&lt;Path&gt;" class="s10" d="m440.5 532.8l-13.1-7.5c-1-0.7-0.9-1.7 0.3-2.4l12.9-7.5c1.3-0.7 3.1-0.8 4.1-0.2l13.1 7.6c1.1 0.6 0.9 1.7-0.3 2.4l-12.9 7.4c-1.2 0.7-3.1 0.8-4.1 0.2z"/>
				<path id="&lt;Path&gt;" class="s10" d="m460.7 544.5l-13.1-7.6c-1.1-0.6-0.9-1.7 0.3-2.4l12.9-7.4c1.2-0.7 3.1-0.8 4.1-0.2l13.1 7.5c1 0.7 0.9 1.7-0.3 2.4l-12.9 7.5c-1.3 0.7-3.1 0.8-4.1 0.2z"/>
				<path id="&lt;Path&gt;" class="s10" d="m480.8 556.1l-13-7.5c-1.1-0.6-0.9-1.7 0.3-2.4l12.9-7.5c1.2-0.7 3.1-0.8 4.1-0.1l13.1 7.5c1 0.6 0.9 1.7-0.3 2.4l-13 7.4c-1.2 0.7-3 0.8-4.1 0.2z"/>
				<path id="&lt;Path&gt;" class="s10" d="m501 567.8l-13-7.6c-1.1-0.6-1-1.7 0.2-2.3l13-7.5c1.2-0.7 3-0.8 4.1-0.2l13.1 7.5c1 0.7 0.9 1.7-0.3 2.4l-13 7.5c-1.2 0.7-3 0.8-4.1 0.2z"/>
				<path id="&lt;Path&gt;" class="s10" d="m521.2 579.4l-13.1-7.5c-1-0.6-0.9-1.7 0.3-2.4l13-7.5c1.2-0.7 3-0.7 4.1-0.1l13 7.5c1.1 0.6 1 1.7-0.3 2.4l-12.9 7.4c-1.2 0.7-3 0.8-4.1 0.2z"/>
				<path id="&lt;Path&gt;" class="s10" d="m541.4 591.1l-13.1-7.6c-1-0.6-0.9-1.6 0.3-2.3l13-7.5c1.2-0.7 3-0.8 4.1-0.2l13 7.6c1.1 0.6 0.9 1.6-0.3 2.3l-12.9 7.5c-1.2 0.7-3.1 0.8-4.1 0.2z"/>
				<path id="&lt;Path&gt;" class="s10" d="m561.6 602.7l-13.1-7.5c-1-0.6-0.9-1.7 0.3-2.4l12.9-7.5c1.3-0.7 3.1-0.7 4.1-0.1l13.1 7.5c1.1 0.6 0.9 1.7-0.3 2.4l-12.9 7.4c-1.2 0.7-3.1 0.8-4.1 0.2z"/>
				<path id="&lt;Path&gt;" class="s10" d="m581.8 614.4l-13.1-7.6c-1.1-0.6-0.9-1.6 0.3-2.3l12.9-7.5c1.2-0.7 3.1-0.8 4.1-0.2l13.1 7.6c1 0.6 0.9 1.6-0.3 2.3l-13 7.5c-1.2 0.7-3 0.8-4 0.2z"/>
				<path id="&lt;Path&gt;" class="s10" d="m304.9 522.6l-38.5-22.2c-1-0.6-0.9-1.7 0.3-2.4l13-7.5c1.2-0.7 3-0.8 4-0.1l38.5 22.2c1.1 0.6 1 1.6-0.3 2.3l-12.9 7.5c-1.2 0.7-3.1 0.8-4.1 0.2z"/>
				<path id="&lt;Path&gt;" class="s10" d="m552.9 665.7l-38.5-22.2c-1.1-0.6-1-1.6 0.3-2.3l12.9-7.5c1.2-0.7 3.1-0.8 4.1-0.2l38.5 22.2c1 0.6 0.9 1.7-0.3 2.4l-13 7.5c-1.2 0.7-3 0.8-4 0.1z"/>
				<path id="&lt;Path&gt;" class="s10" d="m472.1 644.9l-13-7.6c-1.1-0.6-0.9-1.6 0.3-2.3l15.4-8.9c1.2-0.7 3-0.8 4.1-0.2l13.1 7.5c1 0.6 0.9 1.7-0.3 2.4l-15.5 8.9c-1.2 0.7-3 0.8-4.1 0.2z"/>
				<path id="&lt;Path&gt;" class="s10" d="m325.6 560.3l-20.9-12.1c-1.1-0.6-1-1.7 0.3-2.4l15.4-8.9c1.2-0.7 3-0.8 4.1-0.1l20.9 12c1 0.6 0.9 1.7-0.3 2.4l-15.4 8.9c-1.2 0.7-3.1 0.8-4.1 0.2z"/>
				<path id="&lt;Path&gt;" class="s10" d="m452.7 633.7l-20.9-12.1c-1.1-0.6-0.9-1.7 0.3-2.4l15.4-8.9c1.2-0.7 3.1-0.8 4.1-0.2l20.9 12.1c1.1 0.6 0.9 1.7-0.3 2.4l-15.4 8.9c-1.2 0.7-3.1 0.8-4.1 0.2z"/>
				<path id="&lt;Path&gt;" class="s10" d="m354.7 577.1l-20.9-12.1c-1.1-0.6-0.9-1.7 0.3-2.4l15.4-8.9c1.2-0.7 3.1-0.7 4.1-0.1l20.9 12c1.1 0.6 0.9 1.7-0.3 2.4l-15.4 8.9c-1.2 0.7-3.1 0.8-4.1 0.2z"/>
				<path id="&lt;Path&gt;" class="s10" d="m353.7 553.6l90.9 52.5c1.1 0.7 1.1 1.7 0 2.4l-15.7 9.1c-1.1 0.6-3 0.6-4.1 0l-90.9-52.5z"/>
				<path id="&lt;Path&gt;" class="s10" d="m528.5 666l14.6 8.4c0.9 0.5 0.8 1.4-0.2 2l-6.3 3.6c-1 0.6-2.5 0.6-3.4 0.1l-14.6-8.4c-0.8-0.5-0.7-1.3 0.3-1.9l6.3-3.6c1-0.6 2.5-0.7 3.3-0.2z"/>
				<path id="&lt;Path&gt;" class="s10" d="m508.2 654.3l14.6 8.4c0.8 0.5 0.7 1.3-0.3 1.9l-6.3 3.6c-1 0.6-2.5 0.7-3.4 0.2l-14.5-8.4c-0.9-0.5-0.8-1.4 0.2-2l6.3-3.6c1-0.6 2.5-0.6 3.4-0.1z"/>
				<path id="&lt;Path&gt;" class="s10" d="m488 642.6l14.6 8.4c0.8 0.5 0.7 1.4-0.3 2l-6.3 3.6c-1 0.6-2.5 0.6-3.3 0.1l-14.6-8.4c-0.9-0.5-0.7-1.3 0.2-1.9l6.4-3.7c1-0.5 2.5-0.6 3.3-0.1z"/>
				<path id="&lt;Path&gt;" class="s10" d="m519.3 647.8l14.6 8.4c0.9 0.5 0.8 1.4-0.2 2l-6.4 3.6c-0.9 0.6-2.4 0.6-3.3 0.2l-14.6-8.5c-0.8-0.4-0.7-1.3 0.3-1.9l6.3-3.6c1-0.6 2.5-0.7 3.3-0.2z"/>
			</g>
			<path id="&lt;Path&gt;" class="s11" d="m732.9 624.3l-385.5-222.7c-6.1-3.5-9.3-12-7.1-19l87.2-283.1c2.2-7.1 8.8-9.9 14.9-6.4l385.6 222.6c6 3.5 9.2 12 7 19.1l-87.2 283.1c-2.1 7-8.8 9.9-14.9 6.4z"/>
			<path id="&lt;Path&gt;" class="s12" d="m729.3 614.3l-374-216.1c-5.8-3.3-8.8-11.5-6.8-18.2l83.4-270.7c2.1-6.7 8.5-9.4 14.3-6.1l374 216.1c5.8 3.4 8.8 11.6 6.7 18.3l-83.3 270.6c-2.1 6.8-8.5 9.5-14.3 6.1z"/>
			<path id="&lt;Path&gt;" class="s13" d="m729.3 614.3l-374-216.1c-5.8-3.3-8.8-11.5-6.8-18.2l83.4-270.7c2.1-6.7 8.5-9.4 14.3-6.1l374 216.1c5.8 3.4 8.8 11.6 6.7 18.3l-83.3 270.6c-2.1 6.8-8.5 9.5-14.3 6.1z"/>
			<path id="&lt;Path&gt;" class="s13" d="m729.3 614.3l-374-216.1c-5.8-3.3-8.8-11.5-6.8-18.2l83.4-270.7c2.1-6.7 8.5-9.4 14.3-6.1l374 216.1c5.8 3.4 8.8 11.6 6.7 18.3l-83.3 270.6c-2.1 6.8-8.5 9.5-14.3 6.1z"/>
			<path id="&lt;Path&gt;" class="s14" d="m709.2 531.6l-253.2-146.1c-3.9-2.3-6-7.9-4.6-12.6l57.3-185.9c1.4-4.6 5.8-6.4 9.7-4.1l253.2 146.1c4 2.3 6.1 7.9 4.7 12.5l-57.3 185.9c-1.4 4.6-5.8 6.5-9.8 4.2z"/>
			<g id="&lt;Group&gt;">
				<path id="&lt;Path&gt;" class="s15" d="m675 536.1l-253.2-146.2c-3.9-2.3-6-7.9-4.6-12.5l57.2-185.9c1.5-4.6 5.8-6.5 9.8-4.2l253.2 146.2c4 2.3 6.1 7.9 4.6 12.5l-57.2 185.9c-1.4 4.6-5.8 6.5-9.8 4.2z"/>
			</g>
			<g id="&lt;Group&gt;" style="opacity: .5">
				<path id="&lt;Path&gt;" class="s10" d="m675 536.1l-253.2-146.2c-3.9-2.3-6-7.9-4.6-12.5l57.2-185.9c1.5-4.6 5.8-6.5 9.8-4.2l253.2 146.2c4 2.3 6.1 7.9 4.6 12.5l-57.2 185.9c-1.4 4.6-5.8 6.5-9.8 4.2z"/>
			</g>
			<path id="&lt;Path&gt;" class="s1" d="m737.4 333.5l-253.2-146.2c-2.5-1.4-5.1-1.2-7.1 0.3 1.2 0 2.4 0.2 3.7 0.9l253.1 146.2c4 2.3 6.1 7.9 4.7 12.5l-57.3 185.9c-0.5 1.7-1.5 3.1-2.6 3.9 2.7 0 5.1-1.9 6.1-5.1l57.2-185.9c1.5-4.6-0.6-10.2-4.6-12.5z"/>
			<path id="&lt;Compound Path&gt;" fill-rule="evenodd" class="s13" d="m355.7 687.9c-3.5 0-6.8-0.7-9.4-2.2l-101.4-58.5c-2.7-1.6-4.2-3.8-4.2-6.3 0-2.9 2-5.7 5.6-7.7l52.2-30.2c6.4-3.7 15.8-4 21.3-0.8l101.5 58.5c2.7 1.6 4.1 3.8 4.1 6.3 0 2.9-2 5.7-5.5 7.7l-52.3 30.2c-3.4 2-7.8 3-11.9 3zm-45.2-104.9c-3.7 0-7.6 0.8-10.5 2.5l-52.2 30.2c-2.7 1.5-4.2 3.4-4.2 5.2 0 1.8 1.5 3 2.7 3.7l101.5 58.6c4.6 2.6 13 2.3 18.4-0.8l52.2-30.2c2.6-1.5 4.1-3.4 4.1-5.2 0-1.8-1.5-3-2.7-3.7l-101.4-58.6c-2.1-1.2-4.9-1.7-7.9-1.7z"/>
		</g>
		<g id="&lt;Group&gt;">
			<g id="&lt;Group&gt;">
				<path id="&lt;Path&gt;" class="s1" d="m545.9 284.9l-15.7-9.1c-1.4-0.8-2.2-2.8-1.7-4.5 0.5-1.6 2.1-2.3 3.5-1.4l15.7 9c1.4 0.8 2.2 2.9 1.7 4.5-0.5 1.7-2.1 2.3-3.5 1.5z"/>
				<path id="&lt;Path&gt;" class="s1" d="m583.2 306.4l-23.1-13.3c-1.5-0.9-2.2-2.9-1.7-4.5 0.4-1.7 2-2.3 3.5-1.5l23.1 13.3c1.4 0.9 2.2 2.9 1.7 4.5-0.5 1.7-2.1 2.3-3.5 1.5z"/>
				<path id="&lt;Path&gt;" class="s1" d="m514.3 354.6l-15.6-9.1c-1.5-0.8-2.3-2.8-1.8-4.5 0.5-1.6 2.1-2.3 3.6-1.4l15.6 9c1.5 0.8 2.2 2.8 1.7 4.5-0.4 1.6-2 2.3-3.5 1.5z"/>
				<path id="&lt;Path&gt;" class="s1" d="m547.6 373.7l-23.1-13.3c-1.5-0.8-2.3-2.8-1.8-4.5 0.5-1.6 2.1-2.3 3.6-1.4l23 13.3c1.5 0.8 2.3 2.8 1.8 4.5-0.5 1.6-2.1 2.3-3.5 1.4z"/>
				<path id="&lt;Path&gt;" class="s1" d="m499 272.5l-9.8-5.7c-1.4-0.8-2.2-2.8-1.7-4.5 0.5-1.6 2.1-2.3 3.5-1.5l9.8 5.7c1.4 0.8 2.2 2.8 1.7 4.5-0.5 1.6-2 2.3-3.5 1.5z"/>
				<path id="&lt;Path&gt;" class="s1" d="m528.4 304.1l-29.9-17.3c-1.4-0.8-2.2-2.8-1.7-4.5 0.5-1.6 2.1-2.3 3.5-1.4l29.9 17.2c1.5 0.9 2.2 2.9 1.7 4.5-0.4 1.7-2 2.3-3.5 1.5z"/>
				<path id="&lt;Path&gt;" class="s1" d="m500.9 317.5l-9.8-5.7c-1.5-0.8-2.2-2.8-1.7-4.5 0.4-1.6 2-2.3 3.5-1.4l9.7 5.6c1.5 0.9 2.3 2.9 1.8 4.5-0.5 1.7-2.1 2.3-3.5 1.5z"/>
				<path id="&lt;Path&gt;" class="s1" d="m551.2 405.1l-26.2-15c-1.4-0.9-2.2-2.9-1.7-4.5 0.5-1.7 2.1-2.3 3.5-1.5l26.1 15.1c1.5 0.8 2.3 2.8 1.8 4.5-0.5 1.6-2.1 2.3-3.5 1.4z"/>
				<path id="&lt;Path&gt;" class="s1" d="m489.9 340.5l-6.3-3.7c-1.4-0.8-2.2-2.8-1.7-4.5 0.5-1.6 2.1-2.3 3.5-1.4l6.3 3.6c1.4 0.8 2.2 2.9 1.7 4.5-0.5 1.6-2 2.3-3.5 1.5z"/>
				<path id="&lt;Path&gt;" class="s1" d="m484 366.3l-7.8-4.5c-1.5-0.8-2.3-2.8-1.8-4.5 0.5-1.6 2.1-2.3 3.6-1.4l7.8 4.5c1.4 0.8 2.2 2.8 1.7 4.5-0.5 1.6-2.1 2.3-3.5 1.4z"/>
				<path id="&lt;Path&gt;" class="s1" d="m514.3 383.8l-20.6-11.8c-1.4-0.9-2.2-2.9-1.7-4.5 0.5-1.7 2.1-2.3 3.5-1.5l20.6 11.9c1.4 0.8 2.2 2.8 1.7 4.5-0.5 1.6-2.1 2.3-3.5 1.4z"/>
				<path id="&lt;Path&gt;" class="s1" d="m487.2 382.9l-14.8-8.6c-1.4-0.8-2.2-2.8-1.7-4.5 0.5-1.6 2.1-2.3 3.5-1.4l14.8 8.5c1.5 0.8 2.2 2.9 1.7 4.5-0.4 1.7-2 2.3-3.5 1.5z"/>
				<path id="&lt;Path&gt;" class="s1" d="m573.6 418.1l-9.5-5.4c-1.5-0.9-2.3-2.9-1.8-4.5 0.5-1.7 2.1-2.4 3.6-1.5l9.4 5.5c1.5 0.8 2.3 2.8 1.8 4.5-0.5 1.6-2.1 2.3-3.5 1.4z"/>
				<path id="&lt;Path&gt;" class="s1" d="m537.2 338.5l-26.1-15.1c-1.4-0.8-2.2-2.8-1.7-4.5 0.5-1.6 2.1-2.3 3.5-1.5l26.1 15.1c1.5 0.9 2.3 2.9 1.8 4.5-0.5 1.7-2.1 2.3-3.6 1.5z"/>
			</g>
			<path id="&lt;Path&gt;" class="s16" d="m540.3 325.6l-45.5-26.3c-1.4-0.8-2.2-2.8-1.7-4.5 0.5-1.6 2-2.3 3.5-1.4l45.5 26.3c1.5 0.8 2.2 2.8 1.8 4.5-0.5 1.6-2.1 2.3-3.6 1.4z"/>
			<path id="&lt;Path&gt;" class="s16" d="m513.5 339.4l-26.1-15.1c-1.5-0.8-2.3-2.8-1.8-4.5 0.5-1.6 2.1-2.3 3.5-1.4l26.2 15.1c1.4 0.8 2.2 2.8 1.7 4.5-0.5 1.6-2.1 2.3-3.5 1.4z"/>
			<path id="&lt;Path&gt;" class="s16" d="m557.1 349.9l-9.5-5.5c-1.5-0.8-2.3-2.8-1.8-4.5 0.5-1.6 2.1-2.3 3.5-1.4l9.5 5.5c1.5 0.8 2.3 2.8 1.8 4.5-0.5 1.6-2.1 2.3-3.5 1.4z"/>
			<path id="&lt;Path&gt;" class="s16" d="m653.6 347l-56.2-32.4c-1.5-0.8-2.3-2.9-1.8-4.5 0.5-1.6 2.1-2.3 3.6-1.5l56.2 32.5c1.4 0.8 2.2 2.8 1.7 4.5-0.5 1.6-2.1 2.3-3.5 1.4z"/>
			<path id="&lt;Path&gt;" class="s17" d="m511.3 367.5l-31.4-18.2c-1.4-0.8-2.2-2.8-1.7-4.5 0.5-1.6 2-2.3 3.5-1.4l31.4 18.1c1.4 0.8 2.2 2.9 1.7 4.5-0.5 1.6-2 2.3-3.5 1.5z"/>
			<path id="&lt;Path&gt;" class="s17" d="m516 267.6l-23-13.3c-1.5-0.8-2.3-2.8-1.8-4.5 0.5-1.6 2.1-2.3 3.5-1.5l23.1 13.4c1.5 0.8 2.2 2.8 1.8 4.5-0.5 1.6-2.1 2.3-3.6 1.4z"/>
			<path id="&lt;Path&gt;" class="s16" d="m482.4 394.7l-26.7-15.4c-1.5-0.8-2.3-2.9-1.8-4.5 0.5-1.6 2.1-2.3 3.5-1.5l26.8 15.5c1.4 0.8 2.2 2.8 1.7 4.5-0.5 1.6-2.1 2.3-3.5 1.4z"/>
		</g>
		<g id="&lt;Group&gt;">
			<path id="&lt;Path&gt;" class="s1" d="m659.9 318.1l-11.5-6.6c-1-0.6-1.6-2-1.2-3.3 0.3-1.2 1.5-1.6 2.5-1l11.5 6.6c1 0.6 1.6 2.1 1.3 3.3-0.4 1.2-1.6 1.7-2.6 1z"/>
			<path id="&lt;Path&gt;" class="s1" d="m681.7 330.7l-11.4-6.6c-1.1-0.6-1.7-2-1.3-3.3 0.3-1.2 1.5-1.6 2.6-1l11.4 6.6c1.1 0.6 1.6 2.1 1.3 3.3-0.4 1.2-1.5 1.7-2.6 1z"/>
			<path id="&lt;Path&gt;" class="s1" d="m703.5 343.3l-11.4-6.6c-1.1-0.6-1.6-2-1.3-3.3 0.4-1.2 1.5-1.6 2.6-1l11.4 6.6c1.1 0.6 1.7 2.1 1.3 3.3-0.4 1.2-1.5 1.7-2.6 1z"/>
			<path id="&lt;Path&gt;" class="s17" d="m714.3 349.5l-0.4-0.2c-1.1-0.6-1.6-2-1.3-3.3 0.4-1.2 1.5-1.6 2.6-1l0.4 0.2c1 0.6 1.6 2.1 1.2 3.3-0.3 1.2-1.5 1.7-2.5 1z"/>
		</g>
		<path id="&lt;Compound Path&gt;" fill-rule="evenodd" class="s18" d="m123.8 483.4c-7.3 0-14.5-1.8-21-5.6l-76.6-44.2c-3.4-1.9-5.3-5.4-5.3-9.2 0-3.8 1.9-7.3 5.3-9.2l76.6-44.2c12.9-7.5 29-7.5 41.9 0l76.6 44.2c3.4 1.9 5.3 5.4 5.3 9.2 0 3.8-1.9 7.3-5.3 9.2l-76.6 44.2c-6.5 3.8-13.7 5.6-20.9 5.6zm-18.5-9.9c11.4 6.6 25.5 6.6 36.9 0l76.6-44.2c1.8-1 2.9-2.9 2.9-4.9 0-2-1.1-3.8-2.9-4.9l-76.6-44.2c-11.4-6.6-25.5-6.6-36.9 0l-76.6 44.2c-1.8 1-2.9 2.9-2.9 4.9 0 2 1.1 3.9 2.9 4.9z"/>
		<g id="&lt;Group&gt;">
			<path id="&lt;Path&gt;" class="s5" d="m160.6 446.9c-20.6 11.9-53.9 11.9-74.5 0-20.5-11.8-20.5-31.1 0-42.9 20.6-11.9 53.9-11.9 74.5 0 20.5 11.8 20.5 31.1 0 42.9z"/>
			<path id="&lt;Path&gt;" class="s19" d="m201.4 208.8h-149.9l13.9 162.4c0 9 6 18 17.9 24.9 23.8 13.7 62.4 13.7 86.3 0 11.9-6.9 17.9-15.9 17.9-24.9z"/>
			<path id="&lt;Path&gt;" class="s13" d="m201.4 208.8h-149.9l2.3 26.7c3.4 4.4 8 8.7 13.8 12.5 28.7 19 76 22.7 108.2 9l-5 118.8c-0.2 5.1-2 10.2-5.3 14.1-4.9 5.7-14.2 12.5-32.2 16.3 13.2-0.9 26.1-4.2 36.3-10.1 11.9-6.9 17.9-15.9 17.9-24.9l11.1-130.2z"/>
			<path id="&lt;Path&gt;" class="s13" d="m179.4 239.4c-29.2 16.9-76.7 16.9-106 0-29.3-16.9-29.3-44.3 0-61.2 29.3-16.9 76.8-16.9 106 0 29.3 16.9 29.3 44.3 0 61.2z"/>
			<path id="&lt;Path&gt;" class="s13" d="m172.1 219.9c-25.2 14.6-66.1 14.6-91.3 0-25.3-14.5-25.3-38.1 0-52.7 25.2-14.6 66.1-14.6 91.3 0 25.2 14.6 25.2 38.2 0 52.7z"/>
			<path id="&lt;Path&gt;" class="s20" d="m205.8 206.8v-0.1q0-0.1 0-0.3l-1.4-14.5-0.1 0.2c-0.6-11-8.2-21.9-22.8-30.3-30.4-17.6-79.7-17.6-110.2 0-14.9 8.6-22.5 19.8-22.8 31.1l-1.4 12.9q0 0.5-0.1 1v0.2c-0.8 12.4 6.9 24.8 23.2 34.3 31.1 17.9 81.4 17.9 112.4 0 16.4-9.5 24.2-22.1 23.2-34.5z"/>
			<path id="&lt;Path&gt;" class="s21" d="m172.1 219.9c-25.2 14.6-66.1 14.6-91.3 0-25.3-14.5-25.3-38.1 0-52.7 25.2-14.6 66.1-14.6 91.3 0 25.2 14.6 25.2 38.2 0 52.7z"/>
			<path id="&lt;Path&gt;" class="s22" d="m169 219.9c-25.2 14.6-66.1 14.6-91.3 0-25.2-14.5-25.2-38.1 0-52.7 25.2-14.6 66.1-14.6 91.3 0 25.2 14.6 25.2 38.2 0 52.7z"/>
			<path id="&lt;Path&gt;" class="s13" d="m88.4 172.8c25.2-14.6 66.1-14.6 91.3 0 0.4 0.1 0.6 0.4 1 0.5-2.5-2.1-5.3-4.2-8.6-6.1-25.2-14.6-66.1-14.6-91.3 0-24.9 14.4-25.2 37.6-0.9 52.2-16.2-14.5-13.4-34 8.5-46.6z"/>
			<path id="&lt;Path&gt;" class="s23" d="m80.8 173.7c25.2-14.6 66.1-14.6 91.3 0 11.2 6.4 17.4 14.7 18.6 23.1 1.6-10.6-4.6-21.5-18.6-29.6-25.2-14.6-66.1-14.6-91.3 0-14.1 8.1-20.3 19-18.7 29.6 1.3-8.4 7.5-16.7 18.7-23.1z"/>
			<path id="&lt;Compound Path&gt;" fill-rule="evenodd" class="s24" d="m181.5 226c-30.7 17.4-80.3 16.9-110.7-1-30.4-17.9-30.1-46.5 0.6-63.9 30.7-17.3 80.2-16.9 110.6 1 30.4 17.9 30.2 46.5-0.5 63.9zm-9.4-58.8c-25.2-14.6-66.1-14.6-91.3 0-25.3 14.6-25.3 38.2 0 52.7 8.4 4.9 18.6 8.1 29.3 9.7l1.2-3.8c0.5-1.6 1.9-2.7 3.5-2.7h23.2c1.6 0 3.1 1.1 3.6 2.7l1.1 3.8c10.8-1.6 21-4.8 29.4-9.7 25.2-14.5 25.2-38.1 0-52.7z"/>
			<g id="&lt;Group&gt;">
				<path id="&lt;Path&gt;" class="s1" d="m172.1 164.4c-25.2-14.5-66.1-14.5-91.3 0-13.2 7.7-19.5 17.8-18.9 27.8 0.6-9.1 6.9-18.1 18.9-25 25.2-14.6 66.1-14.6 91.3 0 12 6.9 18.3 15.9 18.8 25 0.7-10-5.6-20.1-18.8-27.8z"/>
				<path id="&lt;Path&gt;" class="s1" d="m181.5 223.2c-30.7 17.4-80.3 17-110.7-0.9-14.4-8.6-21.9-19.5-22.5-30.5-0.6 11.9 6.9 24 22.5 33.2 30.4 17.9 80 18.4 110.7 1 16.1-9.1 23.8-21.3 23.1-33.4-0.6 11.2-8.3 22.2-23.1 30.6z"/>
			</g>
			<path id="&lt;Path&gt;" class="s25" d="m117.7 229.2c0-0.7 0.6-1.3 1.4-1.3h14.7c0.7 0 1.3 0.6 1.3 1.3v1.1c0 0.7-0.6 1.3-1.3 1.3h-14.7c-0.8 0-1.4-0.6-1.4-1.3z"/>
			<path id="&lt;Path&gt;" class="s26" d="m133.4 227.9h-13.9c-1 0-1.8 0.8-1.8 1.7v0.3q0.1 0.2 0.1 0.4c0.2-0.7 0.9-1.3 1.7-1.3h13.9c0.8 0 1.4 0.6 1.6 1.3q0.1-0.2 0.1-0.4v-0.3c0-0.9-0.8-1.7-1.7-1.7z"/>
			<g id="&lt;Group&gt;">
				<path id="&lt;Path&gt;" class="s16" d="m128.6 354.5c-1.7 6.4-8.3 10.2-14.7 8.5-6.4-1.7-10.2-8.3-8.5-14.7 1.7-6.4 7.7-8.2 14.1-6.5 6.4 1.7 10.8 6.3 9.1 12.7z"/>
				<path id="&lt;Path&gt;" class="s16" d="m138 341.9c-2.4 2.3-5.5 2-7.6-0.1-2-2.1-2.2-5.2 0.2-7.5 2.4-2.4 7-3.5 9-1.4 2.1 2.1 0.8 6.6-1.6 9z"/>
				<path id="&lt;Path&gt;" class="s16" d="m125.5 331.9c-0.6 3.3-3.3 4.8-6.2 4.3-2.9-0.5-4.9-2.9-4.3-6.2 0.6-3.3 3.7-6.9 6.5-6.4 2.9 0.5 4.5 4.9 4 8.3z"/>
				<path id="&lt;Path&gt;" class="s16" d="m110 330.3c1.3 3.1-0.1 5.9-2.9 7-2.7 1.1-5.6 0.2-6.9-2.9-1.3-3.2-0.6-7.8 2.1-9 2.7-1.1 6.4 1.8 7.7 4.9z"/>
			</g>
		</g>
		<path id="&lt;Path&gt;" class="s27" d="m131.3 229.7c0 0 42-14 25-62.2-17-48.1-50-62.8-36.7-101.4 0 0-20.9 31.2-1.4 73.4 19.5 42.2 23.8 37.4 23.6 57.6-0.3 24-19.7 32.6-19.7 32.6z"/>
		<path id="&lt;Path&gt;" class="s27" d="m135.1 72.8c0 0-4.4-28.8 22.7-57.8 0 0-23.9 53.4-16.1 79.7 0 0-6.3-16.7-6.6-21.9z"/>
	</g>
</svg>